<?xml version="1.0" ?><!DOCTYPE svg  PUBLIC '-//W3C//DTD SVG 1.1//EN'  'http://www.w3.org/Graphics/SVG/1.1/DTD/svg11.dtd'><svg height="512px" style="enable-background:new 0 0 512 512;" version="1.1" viewBox="0 0 512 512" width="512px" xml:space="preserve" xmlns="http://www.w3.org/2000/svg" xmlns:xlink="http://www.w3.org/1999/xlink"><g id="dribbble__x2C__social__x2C__media__x2C__icon__x2C_"><g><path d="M248.411,211.093c-23.68-42.097-48.99-76.38-50.799-78.839    c-38.16,18.039-66.618,53.184-75.507,95.539C125.726,227.866,182.728,228.548,248.411,211.093z" style="fill-rule:evenodd;clip-rule:evenodd;fill:#1A1A1A;"/><path d="M171.916,363.852l0.018-0.055    c-1.041-0.809-2.093-1.526-3.091-2.332C170.639,362.891,171.916,363.852,171.916,363.852z" style="fill-rule:evenodd;clip-rule:evenodd;fill:#1A1A1A;"/><path d="M265.438,257.066c1.781-0.591,3.576-1.13,5.394-1.641    c-3.432-7.777-7.182-15.563-11.1-23.25c-70.434,21.075-138.021,19.539-140.437,19.486c-0.063,1.429-0.118,2.873-0.118,4.327    c0,35.146,13.263,67.185,35.058,91.438c-0.018-0.015-0.065-0.087-0.065-0.087S191.618,280.917,265.438,257.066z" style="fill-rule:evenodd;clip-rule:evenodd;fill:#1A1A1A;"/><path d="M346.33,153.318c-24.107-21.201-55.718-34.131-90.352-34.131    c-11.115,0-21.91,1.366-32.233,3.844c2.057,2.738,27.748,36.86,51.136,79.827C326.514,183.517,346.008,153.857,346.33,153.318z" style="fill-rule:evenodd;clip-rule:evenodd;fill:#1A1A1A;"/><path d="M223.223,123.156c-0.144,0.062-0.305,0.081-0.448,0.145    c0.25-0.063,0.415-0.1,0.415-0.1S223.215,123.176,223.223,123.156z" style="fill-rule:evenodd;clip-rule:evenodd;fill:#1A1A1A;"/><path d="M434.478,16H77.521C43.72,16,16,43.719,16,77.521v356.957    C16,468.282,43.72,496,77.521,496h356.957C468.281,496,496,468.282,496,434.479V77.521C496,43.719,468.281,16,434.478,16z     M412.905,288.263c-2.104,10.288-5.242,20.408-9.338,30.061c-4.022,9.537-8.999,18.671-14.781,27.246    c-5.728,8.474-12.294,16.443-19.541,23.68c-7.255,7.255-15.217,13.817-23.705,19.566c-8.564,5.765-17.725,10.752-27.217,14.761    c-9.668,4.095-19.799,7.247-30.108,9.348c-10.526,2.173-21.369,3.25-32.236,3.25c-10.847,0-21.72-1.096-32.252-3.25    c-10.293-2.101-20.417-5.253-30.099-9.348c-9.499-4.009-18.65-8.996-27.208-14.761c-8.497-5.749-16.459-12.312-23.724-19.566    c-7.222-7.236-13.795-15.206-19.533-23.68c-5.791-8.575-10.765-17.709-14.761-27.246c-4.086-9.652-7.255-19.772-9.365-30.061    c-2.155-10.552-3.23-21.409-3.23-32.273c0-2.488,0.053-4.966,0.178-7.452c0.386-8.342,1.398-16.666,3.053-24.773    c2.11-10.318,5.279-20.446,9.365-30.119c3.996-9.5,8.97-18.652,14.761-27.208c5.738-8.466,12.312-16.457,19.533-23.696    c7.265-7.255,15.227-13.829,23.724-19.564c8.558-5.793,17.709-10.759,27.208-14.781c9.682-4.07,19.799-7.229,30.099-9.321    c10.551-2.163,21.405-3.267,32.252-3.267c10.867,0,21.71,1.104,32.236,3.258c10.31,2.095,20.44,5.253,30.108,9.33    c9.492,4.022,18.652,8.978,27.217,14.762c8.488,5.738,16.45,12.329,23.705,19.566c7.247,7.246,13.813,15.228,19.541,23.696    c5.782,8.559,10.759,17.709,14.781,27.217c4.096,9.652,7.233,19.81,9.338,30.128c1.763,8.564,2.774,17.394,3.104,26.246    c0.073,1.984,0.167,3.979,0.167,5.979C416.177,266.839,415.06,277.711,412.905,288.263z" style="fill-rule:evenodd;clip-rule:evenodd;fill:#1A1A1A;"/><path d="M361.631,169.114c-0.269,0.35-22.192,32.101-76.216,54.129    c0.881,1.813,1.729,3.663,2.594,5.504c2.234,4.73,4.436,9.51,6.492,14.329c0.994,2.381,1.978,4.725,2.946,7.067    c47.015-5.916,93.305,4.06,95.289,4.5c-0.051-3.673-0.239-7.3-0.555-10.893C389.667,215.527,378.64,189.776,361.631,169.114z" style="fill-rule:evenodd;clip-rule:evenodd;fill:#1A1A1A;"/><path d="M279.273,278.403    c-80.762,28.113-107.089,84.847-107.34,85.394c23.201,18.112,52.333,29.002,84.045,29.002c18.938,0,36.996-3.878,53.41-10.835    c-2.021-11.953-9.969-53.843-29.22-103.857C279.861,278.186,279.56,278.276,279.273,278.403z" style="fill-rule:evenodd;clip-rule:evenodd;fill:#1A1A1A;"/><path d="M305.779,271.729c17.959,49.319,25.232,89.453,26.65,97.717    c30.696-20.724,52.522-53.625,58.609-91.734C388.238,276.797,349.958,264.691,305.779,271.729z" style="fill-rule:evenodd;clip-rule:evenodd;fill:#1A1A1A;"/></g></g><g id="Layer_1"/></svg>