<?xml version="1.0" encoding="UTF-8" standalone="no"?>
<!DOCTYPE svg PUBLIC "-//W3C//DTD SVG 1.1//EN" "http://www.w3.org/Graphics/SVG/1.1/DTD/svg11.dtd">
<svg width="100%" height="100%" viewBox="0 0 1817 1825" version="1.1" xmlns="http://www.w3.org/2000/svg" xmlns:xlink="http://www.w3.org/1999/xlink" xml:space="preserve" xmlns:serif="http://www.serif.com/" style="fill-rule:evenodd;clip-rule:evenodd;stroke-linejoin:round;stroke-miterlimit:2;">
    <g transform="matrix(4.16667,0,0,4.16667,0,0)">
        <path d="M260.237,87.444C307.923,87.966 346.425,126.789 346.425,174.602C346.425,222.508 307.771,261.393 259.953,261.763L193.046,261.763L164.647,350.578L236.618,351.509L254.781,408.311C262.299,431.817 284.004,437.383 311.189,437.383L358.304,437.383L330.84,351.509L302.14,261.763L326.864,339.072C390.495,312.552 435.235,249.75 435.235,176.522C435.235,144.02 426.422,113.575 411.06,87.444C380.626,35.679 324.481,0.843 260.188,0.491L259.207,0.489L258.226,0.491L190.113,0.491C168.977,0.824 137.778,2.945 130.242,31.527L116.874,72.931L112.234,87.444L258.285,87.444C258.61,87.441 258.937,87.438 259.261,87.438C259.586,87.438 259.912,87.441 260.237,87.444ZM256.84,129.682L131.395,129.682C130.277,129.682 129.169,129.722 128.07,129.806C108.009,131.395 93.84,144.959 87.907,163.516L0.33,437.383L47.44,437.383C72.121,437.383 96.33,431.817 103.848,408.311L164.247,219.428L225.389,219.428L258.931,219.543L259.261,219.546C284.081,219.546 304.205,199.422 304.205,174.602C304.205,149.781 284.081,129.658 259.261,129.658C258.457,129.658 257.655,129.68 256.859,129.722L256.84,129.682Z" style="fill:rgb(0,1,2);"/>
    </g>
</svg>
