<svg width="47" height="47" viewBox="0 0 47 47" fill="none" xmlns="http://www.w3.org/2000/svg">
<path fill-rule="evenodd" clip-rule="evenodd" d="M10 0C4.47716 0 0 4.47715 0 10V37C0 42.5229 4.47716 47 10 47H37C42.5229 47 47 42.5229 47 37V10C47 4.47715 42.5229 0 37 0H10ZM31.2823 20.1587C31.2823 17.0944 28.8034 14.6063 25.7333 14.5728C25.7124 14.5726 25.6914 14.5725 25.6705 14.5725C25.6496 14.5725 25.6285 14.5726 25.6076 14.5728H16.2046L16.5033 13.6427L17.364 10.9892C17.8492 9.1574 19.8578 9.02147 21.2186 9.00013H25.6038L25.667 9L25.7301 9.00013C29.8694 9.02269 33.4842 11.2553 35.4436 14.5728C36.4326 16.2475 37 18.1987 37 20.2817C37 24.9748 34.1196 28.9997 30.0229 30.6994L30.2789 31.4964L32.047 37H29.0137C27.2635 37 25.8661 36.6433 25.382 35.1368L24.2127 31.4964L19.579 31.4368L21.4074 25.7447H25.715C28.7936 25.721 31.2823 23.2289 31.2823 20.1587ZM17.4382 17.2798H25.5146L25.5158 17.2824C25.5671 17.2797 25.6187 17.2783 25.6705 17.2783C27.2684 17.2783 28.5641 18.5679 28.5641 20.1587C28.5641 21.7494 27.2684 23.0391 25.6705 23.0391L25.6492 23.0389L23.4897 23.0315H19.5533L15.6647 35.1368C15.1807 36.6433 13.622 37 12.033 37H9L14.6384 19.4482C15.0204 18.2589 15.9326 17.3896 17.2241 17.2878C17.2949 17.2824 17.3662 17.2798 17.4382 17.2798Z" fill="#2B2D42"/>
</svg>
